HIERARCHY
ROOT pelvis
{
  OFFSET 0 100 0
  CHANNELS 6 Xposition Yposition Zposition Zrotation Xrotation Yrotation
  JOINT pelvis_right_femur
  {
    OFFSET -10.78128 -3.44521 -0.5502486
    CHANNELS 3 Zrotation Xrotation Yrotation
    JOINT right_femur_tibia
    {
      OFFSET -0.8047443 -44.0398 -0.1307829
      CHANNELS 3 Zrotation Xrotation Yrotation
      JOINT right_tibia_foot
      {
        OFFSET 3.006224 -47.83518 -5
        CHANNELS 3 Zrotation Xrotation Yrotation
        End Site
        {
          OFFSET 0 -5 15
        }
      }
    }
  }
  JOINT pelvis_left_femur
  {
    OFFSET 10.78128 -3.44521 -0.5502486
    CHANNELS 3 Zrotation Xrotation Yrotation
    JOINT left_femur_tibia
    {
      OFFSET 0.8047443 -44.0398 -0.1307829
      CHANNELS 3 Zrotation Xrotation Yrotation
      JOINT left_tibia_foot
      {
        OFFSET -4.370144 -48.10324 -4.275266
        CHANNELS 3 Zrotation Xrotation Yrotation
        End Site
        {
          OFFSET 0 -5 15
        }
      }
    }
  }
  JOINT pelvis_spine1
  {
    OFFSET 0 6.468898 -3.129235
    CHANNELS 3 Zrotation Xrotation Yrotation
    JOINT spine1
    {
      OFFSET 0 23.15396 4.99043
      CHANNELS 3 Zrotation Xrotation Yrotation
      JOINT spine2
      {
        OFFSET 0 20.79997 -5.064912
        CHANNELS 3 Zrotation Xrotation Yrotation
        JOINT neck
        {
          OFFSET 0 14.38658 9.616178
          CHANNELS 3 Zrotation Xrotation Yrotation
          End Site
          {
            OFFSET 0 20 0
          }
        }
      }
      JOINT right_manubrium
      {
        OFFSET -5.722621 16.35077 3.967754
        CHANNELS 3 Zrotation Xrotation Yrotation
        JOINT right_clavicle
        {
          OFFSET -13.16364 1.694482 -4.693211
          CHANNELS 3 Zrotation Xrotation Yrotation
          JOINT right_humerus
          {
            OFFSET -28.5034 -0.3100689 -2.792744
            CHANNELS 3 Zrotation Xrotation Yrotation
            JOINT right_radius
            {
              OFFSET -25.15693 0.02248979 -1.271978
              CHANNELS 3 Zrotation Xrotation Yrotation
              End Site
              {
                OFFSET -15 0 0
              }
            }
          }
        }
      }
      JOINT left_manubrium
      {
        OFFSET 5.722621 16.35077 3.967754
        CHANNELS 3 Zrotation Xrotation Yrotation
        JOINT left_clavicle
        {
          OFFSET 13.16364 1.694482 -4.693211
          CHANNELS 3 Zrotation Xrotation Yrotation
          JOINT left_humerus
          {
            OFFSET 29.39168 -1.063119 -2.237045
            CHANNELS 3 Zrotation Xrotation Yrotation
            JOINT left_radius
            {
              OFFSET 24.59957 -0.9528479 0.9047498
              CHANNELS 3 Zrotation Xrotation Yrotation
              End Site
              {
                OFFSET 15 -0 -0
              }
            }
          }
        }
      }
    }
  }
}
MOTION
Frames: 7
Frame Time: 0.0416666666667
47.13014 106.8421 276.4923 3.54559 -10.26924 0.7479606 -2.826836 11.84417 5.191729 -0 52.94685 -0 6.447694 -7.657583 -4.446397 -6.605677 -6.219956 -10.26739 -0 25.30103 -0 -7.351847 -9.272465 17.41516 -2.606837 -1.652689 7.127408 -2.181422 8.874581 -2.642939 2.052296 23.14789 5.816245 1.10205 -14.89552 8.440498 1.699098 -17.89946 9.902365 85.73391 21.27404 -11.52656 -0 0 20.3763 -24.56731 13.70138 11.87875 4.135988 -13.07938 -3.59582 -90.70717 25.27111 21.08395 0 0 -9.448078 -3.965849 6.253709 17.7996
47.95385 108.3101 282.3846 3.354858 -10.62055 1.827114 -2.305095 4.817812 4.127458 -0 54.57953 -0 5.625428 -7.744129 -5.599911 -6.688826 -0.3556005 -10.5559 -0 23.49655 -0 -7.196729 -10.6294 16.73666 -2.477501 -1.044143 5.695033 -1.869659 8.813533 -3.421471 1.885718 23.62299 6.017837 0.8116962 -14.5806 8.775609 1.875159 -16.93145 9.735857 87.23033 21.76789 -13.19712 -0 0 18.36534 -23.62089 13.76149 11.31499 4.181222 -14.13905 -3.977281 -88.52573 25.74539 17.28547 0 0 -11.35944 -3.191613 6.731083 16.8739
48.71084 109.4075 287.9222 3.184026 -10.51141 3.100108 -1.911083 -2.158827 3.357277 -0 51.95687 -0 4.762067 -7.689351 -6.505819 -6.516411 5.035707 -10.80963 -0 21.01835 -0 -7.157128 -11.94338 15.91657 -2.373787 -0.6421824 4.250424 -1.476632 8.588649 -4.432071 1.864126 23.97988 6.13661 0.6046321 -14.29344 9.113637 1.602862 -15.90585 9.36507 88.70744 22.15204 -14.961 -0 0 16.70445 -22.69378 13.71415 10.81957 4.460146 -15.24559 -4.349839 -86.31201 26.08468 13.17207 0 0 -13.72938 -2.339015 7.274736 15.75064
49.40369 109.8661 293.3806 3.141015 -10.04323 4.519906 -1.855019 -8.566646 2.900566 -0 45.64225 -0 3.813974 -7.530134 -7.246551 -6.275481 9.84088 -11.06012 -0 18.54134 -0 -7.159874 -13.36218 15.00736 -2.437542 -0.4351227 2.981478 -1.043282 8.222435 -5.527366 2.025976 24.17602 6.100169 0.5101457 -14.09341 9.383317 0.9968702 -14.83619 8.860602 90.00517 22.40887 -16.75289 -0 0 15.21757 -21.81017 13.55678 10.31928 4.942235 -16.37958 -4.665875 -84.13466 26.28631 8.970703 0 0 -16.40728 -1.433238 7.876467 14.44901
50.02482 109.6056 298.9612 3.234197 -9.380581 5.870624 -2.160431 -14.0708 2.594689 -0 36.89432 -0 2.738334 -7.541013 -7.898775 -6.090634 14.07082 -11.25552 -0 16.67477 -0 -7.170641 -14.92443 14.09717 -2.668927 -0.3459376 2.035713 -0.6149322 7.777809 -6.487026 2.319623 24.21893 5.908927 0.5088248 -14.02559 9.536534 0.2767534 -13.74062 8.368404 91.06537 22.57645 -18.50254 -0 0 13.66176 -20.93181 13.32085 9.720386 5.5352 -17.53746 -4.865333 -82.07326 26.35254 4.899872 0 0 -19.20719 -0.4751294 8.523779 13.0119
50.56752 108.7221 304.6978 3.399124 -8.674414 6.872651 -2.633777 -18.40354 2.204242 -0 27.46831 -0 1.533636 -7.988857 -8.498586 -6.015081 17.73536 -11.31602 -0 15.8759 -0 -7.21213 -16.50026 13.27929 -2.949105 -0.3064383 1.496939 -0.2301284 7.330838 -7.093381 2.635695 24.15071 5.627278 0.5487032 -14.11703 9.563609 -0.3151616 -12.64029 8.035011 91.93095 22.71206 -20.14357 -0 0 11.82198 -19.9808 13.05119 8.940643 6.113226 -18.69329 -4.886007 -80.24492 26.29498 1.198874 0 0 -21.90279 0.5325645 9.192371 11.51624
51.00141 107.4729 310.5972 3.492094 -8.064362 7.423985 -2.771669 -21.49074 1.700659 -0 19.39749 -0 0.2748943 -8.829841 -9.030447 -5.945775 20.79751 -11.23559 -0 16.39801 -0 -7.364403 -17.74356 12.63321 -3.116739 -0.2459343 1.274078 0.1078098 6.944499 -7.315633 2.883167 24.06657 5.330626 0.5858719 -14.32976 9.487639 -0.6240167 -11.65787 7.902922 92.6395 22.86402 -21.54527 -0 0 9.699978 -18.91707 12.78241 7.991309 6.553904 -19.76798 -4.728187 -78.78167 26.15725 -1.862841 0 0 -24.18968 1.540904 9.835464 10.08036
